<mxfile host="app.diagrams.net" modified="2024-02-12T05:20:14.998Z" agent="Mozilla/5.0 (Windows NT 10.0; Win64; x64) AppleWebKit/537.36 (KHTML, like Gecko) Chrome/121.0.0.0 Safari/537.36" version="23.1.2" etag="yb36FIT7mxoa3gapbLX3" type="github">
  <diagram name="Page-1" id="9siu36bflqyC1qipSKHk">
    <mxGraphModel>
      <root>
        <mxCell id="0" />
        <mxCell id="1" parent="0" />
      </root>
    </mxGraphModel>
  </diagram>
</mxfile>
